{"glyphs":{":":{"x_min":0,"x_max":175,"ha":175,"o":"m 60 292 q 62 311 76 323 q 91 335 108 335 q 124 335 135 323 q 146 311 144 292 q 142 273 127 262 q 112 250 96 250 q 80 250 68 262 q 57 273 60 292 z m 25 42 q 27 61 42 73 q 56 85 73 85 q 89 85 100 73 q 111 61 109 42 q 106 23 92 12 q 77 0 61 0 q 45 0 34 12 q 22 23 25 42 z"},"$":{"x_min":0,"x_max":567,"ha":567,"o":"m 380 546 l 391 619 q 377 628 357 634 q 337 641 311 643 l 276 393 q 308 382 340 368 q 371 355 394 332 q 417 310 428 275 q 440 240 433 187 q 428 145 408 111 q 389 77 360 52 q 331 27 295 12 q 259 -4 220 -7 l 211 -68 l 148 -68 l 157 -5 q 93 2 50 29 q 8 56 -8 84 l 7 195 l 66 195 l 53 106 q 73 87 100 73 q 127 59 165 54 l 207 350 q 179 359 154 371 q 128 383 110 402 q 91 420 82 448 q 72 475 77 517 q 80 547 92 577 q 104 607 126 633 q 149 659 181 677 q 213 695 257 701 l 265 764 l 328 764 l 319 703 q 351 700 387 689 q 423 678 454 649 l 440 546 z m 371 186 q 376 220 369 244 q 362 267 347 284 q 332 300 311 311 q 290 322 267 330 l 228 54 q 254 58 278 68 q 302 79 322 96 q 341 112 354 135 q 367 158 371 186 z m 140 519 q 137 496 142 480 q 146 463 156 451 q 167 439 182 430 q 198 421 216 414 l 248 638 q 200 629 172 595 q 145 561 140 519 z"},"?":{"x_min":0,"x_max":452,"ha":452,"o":"m 120 565 q 107 570 94 575 q 81 580 67 585 q 79 609 97 635 q 115 661 142 682 q 168 704 204 718 q 239 732 284 732 q 325 732 359 716 q 393 701 416 674 q 438 648 448 612 q 459 577 453 537 q 445 482 413 440 q 381 399 330 366 q 313 354 295 344 q 277 334 262 321 q 247 308 236 289 q 225 270 221 242 l 210 164 l 147 164 l 161 261 q 165 292 178 312 q 192 332 212 347 q 231 362 254 376 q 278 389 304 409 q 342 436 363 468 q 384 500 389 537 q 393 566 386 590 q 380 615 365 633 q 350 651 327 661 q 304 671 276 671 q 219 671 181 644 q 143 616 120 565 z m 156 8 q 140 8 128 20 q 117 31 120 50 q 122 68 137 80 q 152 93 168 93 q 183 93 194 80 q 206 68 203 50 q 201 31 186 20 q 171 8 156 8 z"},"<":{"x_min":0,"x_max":680,"ha":680,"o":"m 529 70 l 517 -14 q 416 49 316 112 q 217 175 116 238 q 234 301 352 364 q 469 427 588 490 l 576 406 q 498 364 418 322 q 339 280 261 238 q 327 196 394 154 q 461 112 529 70 z"},"'":{"x_min":0,"x_max":158,"ha":158,"o":"m 31 472 l 66 720 l 131 720 q 121 657 112 596 q 102 535 92 472 z"},"=":{"x_min":0,"x_max":708,"ha":708,"o":"m 596 184 l 587 123 l 81 123 l 90 184 z m 623 378 l 614 317 l 108 317 l 117 378 z"},"a":{"x_min":0,"x_max":542,"ha":542,"o":"m 62 187 q 68 227 88 262 q 108 298 139 325 q 170 352 208 368 q 247 384 289 384 q 317 384 340 376 q 363 368 380 356 q 398 344 408 331 q 419 318 421 308 q 423 324 428 341 q 432 358 434 375 l 485 375 l 441 59 l 516 59 l 508 0 l 378 0 l 382 30 q 384 38 384 46 q 385 55 387 63 q 381 53 368 41 q 354 29 334 18 q 315 7 290 0 q 264 -8 234 -8 q 192 -8 158 8 q 124 23 100 50 q 77 76 66 112 q 56 147 62 187 z m 125 188 q 121 159 128 134 q 134 110 150 92 q 166 74 190 64 q 213 53 242 53 q 271 53 298 64 q 324 74 345 92 q 366 110 380 134 q 393 159 397 188 q 401 216 394 241 q 388 266 372 284 q 356 302 332 312 q 309 323 280 323 q 250 323 224 312 q 197 302 176 284 q 156 266 142 241 q 129 216 125 188 z"},"L":{"x_min":0,"x_max":569,"ha":569,"o":"m 43 59 l 105 59 l 187 640 l 125 640 l 133 700 l 341 700 l 332 640 l 249 640 l 168 59 l 483 59 l 496 154 l 555 154 l 534 0 l 35 0 z"},"3":{"x_min":0,"x_max":515,"ha":515,"o":"m 163 336 l 359 588 l 199 588 l 192 535 l 133 535 l 149 650 l 475 650 l 281 408 q 316 400 345 382 q 374 364 393 338 q 412 311 420 278 q 429 244 424 205 q 418 161 395 122 q 372 84 339 55 q 306 26 264 9 q 223 -8 179 -8 q 132 -8 94 10 q 57 29 32 61 l 84 105 q 101 82 127 68 q 153 53 187 53 q 218 53 248 65 q 277 77 300 98 q 324 119 340 146 q 356 174 361 205 q 365 236 357 264 q 349 291 331 311 q 313 331 286 343 q 260 355 229 355 q 195 355 163 336 z"},";":{"x_min":0,"x_max":201,"ha":201,"o":"m 96 292 q 99 311 114 323 q 129 335 145 335 q 161 335 172 323 q 183 311 181 292 q 178 273 164 262 q 149 250 133 250 q 117 250 106 262 q 94 273 96 292 z m 134 86 q 105 34 77 -17 q 49 -68 20 -120 l -36 -120 q -10 -68 16 -17 q 42 34 69 86 z"},"J":{"x_min":0,"x_max":294,"ha":294,"o":"m 93 700 l 317 700 l 231 90 q 223 34 200 -9 q 177 -52 142 -81 q 108 -110 66 -126 q 23 -142 -24 -143 l -17 -84 q 18 -82 50 -70 q 81 -57 106 -34 q 130 -12 146 20 q 163 52 169 93 l 247 640 l 85 640 z"},"V":{"x_min":0,"x_max":820,"ha":820,"o":"m 137 700 l 359 700 l 350 640 l 277 640 q 313 514 348 388 q 384 263 420 137 l 425 106 l 438 137 q 510 263 580 388 q 650 513 721 640 l 657 640 l 666 700 l 887 700 l 879 640 l 785 640 q 690 471 595 304 q 500 137 406 -32 l 214 640 l 129 640 z"},"\"":{"x_min":0,"x_max":322,"ha":322,"o":"m 178 472 l 213 720 l 276 720 q 266 657 256 596 q 247 535 237 472 z m 45 472 l 80 720 l 143 720 q 133 657 124 596 q 114 535 104 472 z"},"7":{"x_min":0,"x_max":469,"ha":469,"o":"m 468 650 l 85 0 l 14 0 l 362 588 l 110 588 l 103 535 l 43 535 l 59 650 z"},"S":{"x_min":0,"x_max":478,"ha":478,"o":"m 41 84 l 57 195 l 116 195 l 103 106 q 127 83 163 67 q 199 51 249 51 q 279 51 308 60 q 336 69 360 86 q 383 103 400 128 q 416 154 421 186 q 427 228 416 254 q 406 281 384 298 q 363 315 334 326 q 306 336 276 346 q 245 355 216 366 q 187 377 166 396 q 144 414 133 443 q 122 472 127 517 q 131 550 146 584 q 160 617 186 644 q 213 670 252 687 q 290 704 343 704 q 360 704 380 702 q 401 700 422 694 q 443 689 464 678 q 485 667 504 649 l 490 546 l 430 546 l 441 619 q 423 630 396 637 q 369 644 334 644 q 302 644 277 634 q 252 623 234 606 q 215 589 204 566 q 193 544 190 519 q 185 486 197 465 q 209 444 231 430 q 253 417 282 408 q 311 398 341 388 q 371 378 400 364 q 428 350 449 328 q 470 305 480 271 q 490 237 483 187 q 477 142 456 106 q 434 70 402 44 q 370 19 330 6 q 290 -8 247 -8 q 208 -8 175 0 q 142 8 116 22 q 89 35 70 51 q 51 67 41 84 z"},"}":{"x_min":0,"x_max":320,"ha":320,"o":"m 358 329 l 348 265 q 322 264 304 248 q 286 233 275 210 q 264 188 258 163 q 252 138 249 119 l 228 -31 q 222 -77 210 -102 q 197 -126 180 -136 q 164 -147 144 -148 q 124 -149 103 -149 l 47 -149 l 56 -88 l 104 -88 q 119 -88 130 -84 q 141 -79 148 -67 q 156 -55 161 -34 q 166 -14 171 18 l 191 164 q 196 195 206 218 q 216 241 228 257 q 240 273 253 282 q 266 292 276 298 q 266 305 256 315 q 246 325 239 342 q 232 359 229 384 q 226 408 231 444 l 250 579 q 254 611 254 632 q 255 652 251 664 q 247 676 238 680 q 228 685 213 685 l 165 685 l 173 746 l 229 746 q 250 746 270 745 q 289 744 302 734 q 316 723 322 698 q 327 674 321 628 l 299 475 q 296 455 295 430 q 294 406 300 384 q 305 361 318 346 q 332 330 358 329 z"},"Z":{"x_min":0,"x_max":629,"ha":629,"o":"m 625 222 l 594 0 l 35 0 l 43 60 l 577 640 l 141 640 l 154 735 l 217 735 l 212 700 l 663 700 l 655 640 l 120 60 l 542 60 l 565 222 z"},"x":{"x_min":0,"x_max":515,"ha":515,"o":"m 87 375 l 295 375 l 286 315 l 244 315 l 297 225 l 374 315 l 332 315 l 340 375 l 532 375 l 523 315 l 448 315 l 329 177 q 346 147 364 118 q 382 89 399 59 l 488 59 l 480 0 l 272 0 l 280 59 l 321 59 q 307 82 295 103 q 283 124 270 146 l 195 59 l 234 59 l 226 0 l 35 0 l 43 59 l 118 59 q 148 94 178 128 q 209 162 239 197 q 221 227 204 256 q 186 286 168 315 l 79 315 z"},")":{"x_min":0,"x_max":400,"ha":400,"o":"m 302 289 q 291 214 268 146 q 244 78 212 20 q 181 -38 145 -86 q 109 -133 73 -166 q 61 -161 48 -156 q 36 -150 24 -144 q 57 -111 91 -66 q 125 -21 154 34 q 184 89 206 153 q 228 217 238 288 q 248 359 244 423 q 240 487 226 542 q 212 597 190 642 q 169 687 145 720 q 159 726 172 732 q 186 738 200 744 q 227 711 250 664 q 273 616 288 558 q 303 500 308 432 q 312 364 302 289 z"},"&":{"x_min":0,"x_max":700,"ha":700,"o":"m 439 375 l 600 375 l 592 314 l 493 314 l 486 260 q 482 234 477 196 q 472 159 455 127 l 509 13 l 456 -19 l 415 66 q 383 31 340 12 q 297 -8 249 -8 q 208 -8 174 8 q 140 23 116 50 q 93 76 82 112 q 72 147 78 188 q 83 224 100 256 q 117 288 142 314 q 168 339 200 356 q 232 374 267 380 l 212 496 q 198 526 196 558 q 193 590 202 620 q 212 651 234 678 q 256 706 292 726 q 323 743 352 746 q 382 750 409 744 q 436 739 460 728 q 483 717 500 705 l 468 656 q 455 664 438 672 q 422 681 403 686 q 384 690 364 688 q 345 687 326 676 q 274 646 262 601 q 251 556 272 512 l 410 220 q 420 234 421 249 z m 141 188 q 137 159 144 134 q 150 110 166 92 q 181 73 204 62 q 228 52 258 52 q 299 52 334 72 q 368 92 388 124 l 295 322 q 265 321 238 311 q 212 301 192 284 q 171 266 158 242 q 145 217 141 188 z"},"_":{"x_min":0,"x_max":600,"ha":600,"o":"m 495 0 l 95 0 l 103 61 l 503 61 z"},"v":{"x_min":0,"x_max":586,"ha":586,"o":"m 90 375 l 294 375 l 285 315 l 227 315 q 250 258 272 200 q 294 143 310 86 q 339 142 378 200 q 416 258 455 315 l 395 315 l 404 375 l 606 375 l 597 315 l 520 315 q 463 230 406 146 q 350 62 294 -23 q 261 62 228 146 q 195 230 162 315 l 82 315 z"},"O":{"x_min":0,"x_max":786,"ha":786,"o":"m 85 349 q 95 423 132 488 q 169 554 224 602 q 280 651 349 680 q 418 708 492 708 q 566 708 627 680 q 688 651 730 602 q 772 554 792 488 q 811 423 801 349 q 790 275 752 210 q 715 145 660 96 q 604 48 535 20 q 466 -8 392 -8 q 318 -8 257 20 q 196 48 154 96 q 112 145 93 210 q 74 275 85 349 z m 147 349 q 138 287 154 233 q 169 179 204 138 q 238 98 288 74 q 339 51 400 51 q 461 51 518 74 q 575 98 621 138 q 667 179 698 233 q 730 287 739 349 q 747 410 731 464 q 715 519 680 560 q 646 601 596 624 q 545 648 484 648 q 423 648 366 624 q 309 601 263 560 q 217 519 186 464 q 156 410 147 349 z"},"(":{"x_min":0,"x_max":415,"ha":415,"o":"m 125 291 q 135 366 158 434 q 182 502 214 560 q 245 618 281 666 q 317 713 353 746 q 365 740 377 734 q 389 729 402 723 q 369 690 335 645 q 301 600 272 545 q 242 490 220 426 q 198 362 188 291 q 178 220 182 156 q 186 92 200 37 q 214 -18 236 -63 q 257 -108 281 -141 q 267 -147 254 -152 q 240 -158 226 -164 q 199 -131 176 -84 q 153 -36 138 22 q 123 80 118 148 q 114 216 125 291 z"},"C":{"x_min":0,"x_max":610,"ha":610,"o":"m 592 546 l 603 620 q 549 648 484 648 q 423 648 366 624 q 309 601 263 560 q 217 519 186 464 q 156 410 147 349 q 138 287 154 233 q 169 179 204 138 q 238 98 288 74 q 338 51 399 51 q 440 51 478 62 q 517 72 553 92 l 581 42 q 537 19 490 6 q 443 -8 392 -8 q 318 -8 257 20 q 196 48 154 96 q 112 145 93 210 q 74 275 85 349 q 95 423 132 488 q 170 554 225 602 q 280 651 349 680 q 418 708 492 708 q 543 708 587 695 q 631 682 668 658 l 652 546 z"},"W":{"x_min":0,"x_max":1191,"ha":1191,"o":"m 137 700 l 359 700 l 350 640 l 277 640 q 313 514 348 388 q 383 263 420 137 l 425 106 q 467 202 524 296 q 581 389 632 482 q 621 521 610 560 q 598 600 587 640 l 499 640 l 507 700 l 729 700 l 721 640 l 650 640 q 685 514 720 388 q 756 263 793 137 l 797 106 l 811 137 q 882 263 952 388 q 1023 513 1094 640 l 1028 640 l 1036 700 l 1258 700 l 1249 640 l 1157 640 q 1063 471 968 304 q 873 137 779 -32 l 660 385 l 654 416 q 630 360 600 304 q 569 247 536 190 q 503 134 470 78 q 436 22 406 -32 l 214 640 l 129 640 z"},"A":{"x_min":0,"x_max":800,"ha":800,"o":"m 43 59 l 123 59 q 217 229 312 396 q 407 562 502 732 q 550 562 598 396 q 645 229 693 59 l 773 59 l 765 0 l 557 0 l 565 59 l 630 59 q 613 117 598 174 q 582 231 565 289 l 314 289 q 282 231 250 174 q 218 117 185 59 l 251 59 l 243 0 l 35 0 z m 488 563 l 483 594 q 482 592 480 587 q 477 582 475 577 q 471 571 468 563 q 461 550 448 526 q 434 501 418 471 q 401 441 383 408 q 365 376 349 348 l 548 348 z"},"f":{"x_min":0,"x_max":319,"ha":319,"o":"m 43 59 l 104 59 l 140 314 l 79 314 l 87 375 l 147 375 l 167 517 q 175 573 198 616 q 221 659 256 688 q 290 718 333 734 q 376 749 424 751 l 416 691 q 381 690 350 678 q 319 665 294 642 q 269 620 252 588 q 236 556 230 516 l 210 375 l 331 375 l 323 314 l 201 314 l 166 59 l 251 59 l 243 0 l 35 0 z"},"Q":{"x_min":0,"x_max":808,"ha":808,"o":"m 147 349 q 138 287 154 233 q 169 179 204 138 q 238 98 288 74 q 338 51 399 51 q 460 51 518 74 q 575 98 621 138 q 667 179 698 233 q 730 287 739 349 q 747 410 731 464 q 715 519 680 560 q 646 601 596 624 q 545 648 484 648 q 423 648 366 624 q 309 601 263 560 q 217 519 186 464 q 156 410 147 349 z m 85 349 q 95 423 132 488 q 170 554 225 602 q 280 651 349 680 q 418 708 492 708 q 566 708 628 680 q 689 651 731 602 q 773 554 792 488 q 811 423 801 349 q 787 257 734 181 q 680 105 602 59 l 782 59 l 774 0 l 467 0 q 427 -8 392 -8 q 318 -8 257 20 q 196 48 154 96 q 112 145 93 210 q 74 275 85 349 z"},"w":{"x_min":0,"x_max":839,"ha":839,"o":"m 667 375 l 859 375 l 851 315 l 778 315 q 724 230 670 146 q 615 62 562 -23 l 463 247 l 290 -23 q 258 62 227 146 q 196 230 166 315 l 82 315 l 90 375 l 283 375 l 275 315 l 228 315 q 248 258 268 200 q 288 143 305 86 q 328 130 354 172 q 381 214 407 256 q 409 271 412 286 q 414 300 416 315 l 358 315 l 366 375 l 570 375 l 562 315 l 500 315 q 520 258 540 200 q 560 143 577 86 q 609 144 644 201 q 679 258 716 315 l 659 315 z"},"-":{"x_min":0,"x_max":300,"ha":300,"o":"m 48 158 l 56 219 l 240 219 l 232 158 z"},"E":{"x_min":0,"x_max":571,"ha":571,"o":"m 43 59 l 107 59 l 188 640 l 125 640 l 133 700 l 620 700 l 598 546 l 538 546 l 552 640 l 251 640 l 215 382 l 536 382 l 527 323 l 206 323 l 169 59 l 484 59 l 497 154 l 557 154 l 536 0 l 35 0 z"},"s":{"x_min":0,"x_max":327,"ha":327,"o":"m 121 111 l 115 66 q 129 57 145 55 q 161 53 181 53 q 186 53 196 55 q 206 57 216 63 q 227 69 236 79 q 245 89 248 106 q 252 128 242 140 q 231 151 213 158 q 195 166 174 172 q 152 179 134 190 q 116 201 106 220 q 96 240 101 274 q 105 303 118 324 q 132 344 151 357 q 170 370 191 376 q 212 382 230 382 q 237 382 250 380 q 263 379 278 375 q 293 371 307 364 q 321 356 330 344 l 318 264 l 262 264 l 270 311 q 260 318 246 320 q 231 322 223 322 q 200 322 182 310 q 165 298 163 273 q 162 256 174 246 q 187 236 204 228 q 222 220 243 212 q 264 204 280 191 q 297 178 306 158 q 316 138 312 107 q 310 92 302 72 q 293 52 276 34 q 259 16 234 4 q 208 -8 171 -8 q 157 -8 140 -6 q 123 -4 107 0 q 91 5 77 12 q 63 20 54 31 l 65 111 z"},">":{"x_min":0,"x_max":650,"ha":650,"o":"m 80 -14 l 91 70 q 170 112 249 154 q 328 196 408 238 q 340 280 273 322 q 206 364 139 406 l 151 490 q 252 427 352 364 q 451 301 553 238 q 434 175 316 112 q 199 49 80 -14 z"},"l":{"x_min":0,"x_max":278,"ha":278,"o":"m 43 59 l 118 59 l 206 690 l 138 690 l 147 750 l 277 750 l 180 59 l 251 59 l 243 0 l 35 0 z"},"8":{"x_min":0,"x_max":510,"ha":510,"o":"m 187 502 q 182 465 205 440 q 228 416 266 416 q 305 416 335 440 q 365 465 370 502 q 373 521 368 538 q 364 556 354 569 q 343 582 327 590 q 311 597 292 597 q 273 597 255 590 q 237 582 223 569 q 209 556 200 538 q 190 521 187 502 z m 88 205 q 84 174 92 146 q 99 119 116 98 q 133 77 158 65 q 183 53 214 53 q 245 53 275 65 q 305 77 328 98 q 352 119 368 146 q 384 174 388 205 q 392 235 384 262 q 377 289 360 309 q 342 329 316 341 q 291 353 260 354 q 228 354 198 342 q 169 330 146 310 q 123 290 108 263 q 92 236 88 205 z m 23 205 q 32 267 72 316 q 111 365 166 390 q 142 409 130 438 q 119 468 124 504 q 128 536 144 564 q 160 592 184 613 q 208 634 238 646 q 267 658 299 658 q 331 658 358 646 q 384 633 402 612 q 420 591 428 563 q 436 535 432 503 q 427 468 407 438 q 387 409 358 390 q 407 365 434 316 q 460 267 451 205 q 445 161 422 122 q 399 84 366 55 q 333 26 292 9 q 250 -8 207 -8 q 163 -8 126 9 q 90 26 65 55 q 40 84 28 122 q 17 161 23 205 z"},"\\":{"x_min":0,"x_max":365,"ha":365,"o":"m 128 736 q 171 546 214 358 q 256 171 299 -19 l 229 -19 q 186 171 144 358 q 101 546 58 736 z"},"e":{"x_min":0,"x_max":445,"ha":445,"o":"m 279 323 q 248 323 220 311 q 193 299 172 279 q 151 259 138 233 q 126 207 125 178 q 185 200 245 222 q 305 243 365 265 q 353 291 330 307 q 308 323 279 323 z m 440 230 q 363 202 286 174 q 210 147 133 119 q 146 89 174 71 q 202 53 241 53 q 268 53 292 63 q 317 73 336 90 q 345 79 353 68 q 361 56 369 45 q 340 20 306 6 q 271 -8 233 -8 q 192 -8 158 8 q 124 23 100 50 q 77 76 66 112 q 56 147 62 188 q 68 228 88 264 q 109 300 140 326 q 170 353 208 368 q 247 384 288 384 q 350 384 390 340 q 431 297 440 230 z"},"b":{"x_min":0,"x_max":542,"ha":542,"o":"m 44 59 l 119 59 l 208 690 l 140 690 l 148 750 l 278 750 l 222 350 q 219 339 216 330 q 213 320 209 310 q 215 320 230 333 q 244 346 264 358 q 285 369 310 376 q 336 384 363 384 q 405 384 439 368 q 473 353 496 326 q 519 299 530 264 q 540 228 534 188 q 528 148 508 112 q 488 77 458 50 q 427 23 389 8 q 351 -8 309 -8 q 279 -8 255 0 q 231 7 214 18 q 197 29 187 41 q 177 53 174 63 l 171 30 l 166 0 l 36 0 z m 471 188 q 475 216 468 241 q 462 266 446 284 q 431 302 408 312 q 384 323 354 323 q 325 323 298 312 q 272 302 252 284 q 231 266 217 241 q 203 216 199 188 q 195 159 202 134 q 209 110 224 92 q 240 74 264 64 q 287 53 317 53 q 346 53 372 64 q 399 74 420 92 q 440 110 454 134 q 467 159 471 188 z"},"%":{"x_min":0,"x_max":726,"ha":726,"o":"m 442 111 q 438 85 453 68 q 468 51 494 51 q 520 51 539 68 q 558 85 562 111 q 565 137 550 154 q 536 171 510 171 q 484 171 465 154 q 446 137 442 111 z m 485 -10 q 460 -10 439 0 q 418 9 404 26 q 389 42 382 64 q 376 86 379 112 q 383 137 396 159 q 409 181 428 197 q 447 213 470 222 q 494 232 519 232 q 544 232 565 222 q 586 213 600 197 q 615 181 622 159 q 628 137 625 112 q 621 86 608 64 q 595 42 576 26 q 557 9 534 0 q 510 -10 485 -10 z m 177 389 q 173 363 188 346 q 203 328 229 328 q 255 328 274 346 q 293 363 297 389 q 300 414 286 432 q 271 449 245 449 q 219 449 200 432 q 181 414 177 389 z m 220 267 q 195 267 174 276 q 153 286 138 302 q 124 319 118 341 q 111 363 114 389 q 118 414 131 436 q 144 458 163 474 q 182 491 206 500 q 229 510 254 510 q 279 510 300 500 q 321 491 336 474 q 350 458 356 436 q 363 414 360 389 q 356 363 343 341 q 330 319 311 302 q 292 286 268 276 q 245 267 220 267 z m 148 0 q 241 126 332 250 q 424 374 517 500 l 586 500 q 493 374 402 250 q 310 126 217 0 z"},"m":{"x_min":0,"x_max":849,"ha":849,"o":"m 614 59 l 691 59 l 717 247 q 720 276 704 298 q 687 320 647 322 q 619 322 592 312 q 565 303 543 286 q 521 269 506 246 q 491 222 487 195 l 468 59 l 536 59 l 528 0 l 321 0 l 329 59 l 406 59 l 431 247 q 434 276 418 298 q 401 320 361 322 q 333 322 306 312 q 279 302 257 285 q 235 268 220 244 q 205 221 201 193 l 182 59 l 251 59 l 243 0 l 35 0 l 43 59 l 120 59 l 156 315 l 87 315 l 95 375 l 217 375 l 215 353 q 213 332 212 316 q 212 299 210 278 q 238 326 284 354 q 331 382 388 383 q 441 383 470 356 q 499 328 498 283 q 526 329 572 356 q 618 382 673 383 q 730 383 760 352 q 789 321 783 271 l 754 59 l 822 59 l 814 0 l 606 0 z"},"#":{"x_min":0,"x_max":571,"ha":571,"o":"m 218 382 q 210 351 202 321 q 195 291 187 260 l 308 260 q 316 291 324 321 q 331 351 339 382 z m 240 0 q 267 101 292 199 l 171 199 q 146 101 119 0 l 56 0 q 83 101 108 199 l 9 199 q 13 214 16 230 q 20 245 24 260 l 124 260 q 132 291 140 321 q 147 351 155 382 l 57 382 q 61 397 64 412 q 68 427 72 443 l 171 443 q 185 494 198 543 q 211 592 224 643 l 287 643 q 274 592 261 543 q 248 494 234 443 l 355 443 q 369 494 382 543 q 395 592 408 643 l 471 643 q 458 592 445 543 q 432 494 418 443 l 530 443 q 526 427 523 412 q 520 397 516 382 l 402 382 q 394 351 386 321 q 379 291 371 260 l 483 260 q 479 245 476 230 q 472 214 467 199 l 355 199 q 330 101 303 0 z"},",":{"x_min":0,"x_max":200,"ha":200,"o":"m 166 86 q 137 34 108 -17 q 80 -68 51 -120 l -5 -120 q 21 -68 47 -17 q 73 34 100 86 z"},"n":{"x_min":0,"x_max":563,"ha":563,"o":"m 328 59 l 406 59 l 431 247 q 434 276 418 298 q 401 320 361 322 q 333 322 306 312 q 279 302 257 285 q 235 268 220 244 q 205 221 201 193 l 182 59 l 251 59 l 243 0 l 35 0 l 43 59 l 120 59 l 156 315 l 87 315 l 95 375 l 217 375 l 215 353 q 213 332 212 316 q 212 299 210 278 q 237 326 285 354 q 333 383 388 383 q 445 383 474 352 q 503 321 498 271 l 468 59 l 536 59 l 528 0 l 320 0 z"},"h":{"x_min":0,"x_max":563,"ha":563,"o":"m 328 59 l 406 59 l 431 247 q 434 276 418 298 q 401 320 361 322 q 333 322 306 312 q 279 302 257 285 q 235 268 220 244 q 205 221 201 193 l 182 59 l 251 59 l 243 0 l 35 0 l 43 59 l 120 59 l 209 690 l 133 690 l 142 750 l 279 750 l 219 323 l 210 278 q 238 326 284 354 q 331 381 388 383 q 445 383 474 352 q 503 321 498 271 l 468 59 l 536 59 l 528 0 l 320 0 z"},"z":{"x_min":0,"x_max":433,"ha":433,"o":"m 414 116 l 398 0 l 35 0 l 43 61 q 121 125 188 188 q 255 250 333 315 l 91 315 l 104 410 l 160 410 l 155 375 l 429 375 l 421 314 q 382 281 346 250 q 310 218 275 187 q 240 156 204 124 q 169 93 130 61 l 350 61 l 358 116 z"},"B":{"x_min":0,"x_max":534,"ha":534,"o":"m 43 59 l 96 59 l 177 640 l 125 640 l 133 700 l 357 700 q 405 700 443 690 q 481 680 506 659 q 532 638 543 604 q 554 571 547 525 q 539 463 502 416 q 465 369 401 352 q 429 346 454 332 q 479 318 496 296 q 513 274 521 245 q 529 216 524 180 q 518 135 494 102 q 471 68 437 46 q 403 23 362 12 q 320 0 277 0 l 35 0 z m 195 322 l 158 59 l 280 59 q 314 59 345 67 q 376 75 400 91 q 425 107 442 132 q 458 156 463 188 q 468 223 456 248 q 444 274 421 290 q 398 307 366 314 q 335 322 301 322 z m 240 640 l 204 382 l 323 382 q 388 382 432 420 q 475 457 483 517 q 488 550 481 574 q 474 597 457 612 q 440 626 414 633 q 389 640 357 640 z"},"K":{"x_min":0,"x_max":686,"ha":686,"o":"m 451 59 l 508 59 q 456 139 404 218 q 353 298 302 378 l 217 308 q 208 245 200 184 q 191 122 182 59 l 265 59 l 257 0 l 35 0 l 43 59 l 120 59 l 202 640 l 125 640 l 133 700 l 341 700 l 332 640 l 264 640 l 231 406 q 229 398 228 390 q 226 383 224 375 l 246 397 l 535 640 l 490 640 l 498 700 l 706 700 l 698 640 l 613 640 l 349 418 q 407 328 465 239 q 523 150 582 59 l 659 59 l 651 0 l 443 0 z"},"R":{"x_min":0,"x_max":574,"ha":574,"o":"m 43 59 l 96 59 l 177 640 l 125 640 l 133 700 l 343 700 q 376 700 414 690 q 451 679 482 656 q 513 634 532 599 q 550 564 543 514 q 532 440 488 391 q 443 342 368 326 l 456 59 l 547 59 l 539 0 l 409 0 l 302 322 q 291 321 280 321 q 268 321 257 321 l 194 321 l 158 59 l 265 59 l 257 0 l 35 0 z m 203 381 l 299 381 q 347 381 380 394 q 414 406 435 426 q 456 445 466 468 q 477 492 480 514 q 484 539 475 562 q 466 585 446 602 q 427 619 398 630 q 370 640 336 640 l 240 640 z"},"T":{"x_min":0,"x_max":623,"ha":623,"o":"m 205 59 l 289 59 l 371 640 l 184 640 l 170 546 l 111 546 l 133 700 l 686 700 l 664 546 l 604 546 l 618 640 l 433 640 l 351 59 l 427 59 l 419 0 l 197 0 z"},"P":{"x_min":0,"x_max":506,"ha":506,"o":"m 43 59 l 96 59 l 177 640 l 125 640 l 133 700 l 343 700 q 376 700 414 690 q 451 679 482 656 q 513 634 532 599 q 550 564 543 514 q 530 426 468 374 q 407 321 304 321 l 194 321 l 158 59 l 265 59 l 257 0 l 35 0 z m 203 381 l 299 381 q 347 381 380 394 q 414 406 435 426 q 456 445 466 468 q 477 492 480 514 q 484 539 475 562 q 466 585 446 602 q 427 619 398 630 q 370 640 336 640 l 240 640 z"},"|":{"x_min":0,"x_max":255,"ha":255,"o":"m 93 -232 l 223 700 l 286 700 l 156 -232 z"},"t":{"x_min":0,"x_max":324,"ha":324,"o":"m 206 619 l 269 619 l 235 375 l 341 375 l 333 314 l 226 314 l 191 59 l 269 59 l 261 0 l 120 0 l 164 314 l 79 314 l 87 375 l 172 375 z"},"M":{"x_min":0,"x_max":971,"ha":971,"o":"m 925 700 l 1033 700 l 1025 640 l 941 640 l 859 59 l 944 59 l 936 0 l 715 0 l 723 59 l 797 59 l 862 522 q 863 528 865 540 q 867 553 869 558 q 862 550 854 541 q 847 532 839 523 q 808 487 767 442 q 726 396 682 348 q 637 299 592 250 q 546 200 506 156 q 460 229 426 283 q 393 337 369 376 q 345 414 329 440 q 313 466 302 484 q 291 501 284 513 q 276 525 269 536 l 257 558 q 256 549 256 540 q 255 532 254 522 l 189 59 l 265 59 l 257 0 l 35 0 l 43 59 l 127 59 l 209 640 l 125 640 l 133 700 l 241 700 q 265 661 299 608 q 333 554 370 494 q 408 435 447 373 q 486 311 521 256 q 622 367 722 478 q 823 589 925 700 z"},"g":{"x_min":0,"x_max":543,"ha":543,"o":"m 468 375 l 595 375 l 586 315 l 511 315 l 460 -47 q 454 -92 434 -129 q 413 -166 383 -193 q 353 -220 316 -235 q 278 -250 238 -250 q 193 -249 154 -232 q 115 -215 89 -190 l 138 -140 q 157 -160 185 -173 q 213 -186 245 -186 q 273 -186 299 -175 q 325 -164 346 -144 q 367 -125 380 -98 q 394 -72 399 -40 l 409 30 q 411 38 414 46 q 417 54 419 62 q 412 51 398 38 q 384 26 364 16 q 345 6 320 0 q 296 -7 268 -7 q 226 -7 192 8 q 158 24 134 50 q 111 77 100 112 q 90 147 96 187 q 102 227 122 262 q 142 298 173 325 q 204 352 242 368 q 281 384 323 384 q 351 384 374 376 q 397 368 414 356 q 432 344 442 331 q 453 318 455 308 q 457 324 462 341 q 466 358 468 375 z m 159 188 q 155 159 162 134 q 168 110 184 92 q 200 74 224 64 q 247 53 276 53 q 305 53 332 64 q 358 74 379 92 q 400 110 414 134 q 427 159 431 188 q 435 216 428 241 q 422 266 406 284 q 390 302 366 312 q 343 323 314 323 q 284 323 258 312 q 231 302 210 284 q 190 266 176 241 q 163 216 159 188 z"},"j":{"x_min":0,"x_max":198,"ha":198,"o":"m 60 375 l 188 375 l 135 -2 q 127 -62 102 -107 q 76 -152 38 -181 l 0 -135 q 29 -112 48 -79 q 67 -46 72 -1 l 117 315 l 52 315 z m 136 514 q 138 532 153 544 q 168 557 185 557 q 200 557 212 544 q 223 532 220 514 q 218 495 204 484 q 189 472 173 472 q 156 472 145 484 q 134 495 136 514 z"},"i":{"x_min":0,"x_max":278,"ha":278,"o":"m 43 59 l 117 59 l 152 315 l 79 315 l 87 375 l 223 375 l 179 59 l 251 59 l 243 0 l 35 0 z m 170 514 q 173 532 188 544 q 202 557 219 557 q 234 557 246 544 q 257 532 255 514 q 251 495 236 484 q 222 472 206 472 q 190 472 178 484 q 167 495 170 514 z"},"y":{"x_min":0,"x_max":609,"ha":609,"o":"m 100 -191 l 187 -191 q 217 -143 248 -96 q 278 -48 309 -1 q 280 78 252 157 q 223 236 194 315 l 114 315 l 122 375 l 326 375 l 317 315 l 259 315 q 284 251 308 186 q 332 121 349 56 q 383 120 426 185 q 468 250 510 315 l 451 315 l 459 375 l 661 375 l 653 315 l 575 315 q 494 188 413 62 q 332 -63 251 -191 l 308 -191 l 300 -250 l 92 -250 z"},"@":{"x_min":0,"x_max":990,"ha":990,"o":"m 350 188 q 346 159 352 134 q 359 110 374 92 q 390 74 414 64 q 437 53 467 53 q 496 53 522 64 q 549 74 570 92 q 590 110 604 134 q 618 159 622 188 q 626 216 620 241 q 613 266 597 284 q 581 302 558 312 q 534 323 505 323 q 476 323 450 312 q 423 302 402 284 q 382 266 368 241 q 354 216 350 188 z m 901 188 q 890 134 868 98 q 845 61 816 40 q 788 18 758 9 q 727 0 700 0 l 603 0 l 607 30 q 608 38 609 46 q 610 55 612 63 q 606 53 592 40 q 579 28 559 18 q 539 7 514 0 q 488 -8 458 -8 q 416 -8 382 8 q 348 23 325 50 q 302 76 292 112 q 281 147 287 187 q 293 227 313 262 q 333 298 364 324 q 395 351 433 366 q 471 382 513 382 q 540 382 564 374 q 587 366 604 355 q 621 344 632 331 q 643 318 646 308 q 648 324 652 341 q 656 358 660 375 l 711 375 l 666 61 l 711 61 q 755 61 790 90 q 826 118 838 188 q 848 261 830 326 q 812 390 771 438 q 730 486 670 514 q 610 542 538 542 q 465 542 397 514 q 329 486 274 438 q 220 390 183 326 q 146 261 136 188 q 126 115 144 51 q 163 -13 204 -61 q 245 -109 306 -136 q 366 -164 439 -164 q 499 -164 555 -146 q 611 -128 660 -96 q 668 -108 676 -119 q 684 -130 692 -141 q 637 -182 566 -204 q 496 -225 430 -225 q 344 -225 273 -192 q 202 -160 154 -104 q 105 -48 84 28 q 62 103 74 189 q 86 275 129 350 q 172 425 236 481 q 301 537 381 570 q 461 602 547 602 q 633 602 704 570 q 774 537 822 481 q 870 425 892 350 q 913 274 901 188 z"},".":{"x_min":0,"x_max":163,"ha":163,"o":"m 42 42 q 45 61 60 73 q 74 85 91 85 q 107 85 118 73 q 129 61 126 42 q 124 23 110 12 q 95 0 79 0 q 62 0 51 12 q 40 23 42 42 z"},"p":{"x_min":0,"x_max":543,"ha":543,"o":"m 5 -191 l 72 -191 l 143 315 l 68 315 l 78 375 l 203 375 q 201 358 200 341 q 198 324 196 307 q 202 317 216 330 q 231 344 252 356 q 273 367 298 375 q 324 383 351 383 q 393 383 427 368 q 461 352 484 326 q 507 299 518 264 q 528 228 523 188 q 517 147 496 112 q 476 76 445 49 q 414 22 376 6 q 338 -9 296 -9 q 267 -9 244 -2 q 221 5 204 16 q 187 26 176 38 q 166 50 163 61 q 164 53 164 46 q 165 39 166 32 l 134 -191 l 213 -191 l 205 -250 l -1 -250 z m 460 188 q 464 216 457 240 q 450 265 434 283 q 419 301 396 312 q 372 322 343 322 q 313 322 286 312 q 260 301 240 283 q 219 265 206 240 q 192 216 188 188 q 183 159 190 134 q 197 110 212 92 q 228 73 252 62 q 275 52 304 52 q 333 52 360 62 q 386 73 407 92 q 428 110 442 134 q 456 159 460 188 z"},"X":{"x_min":0,"x_max":699,"ha":699,"o":"m 133 700 l 355 700 l 346 640 l 290 640 q 317 586 344 534 q 372 482 398 429 l 407 406 l 421 429 l 588 640 l 532 640 l 540 700 l 762 700 l 753 640 l 664 640 q 607 568 550 496 q 494 424 437 352 q 511 207 588 59 l 672 59 l 664 0 l 442 0 l 450 59 l 510 59 l 405 264 q 400 274 396 284 q 393 295 388 305 l 373 281 q 328 225 286 170 q 243 115 199 59 l 265 59 l 257 0 l 35 0 l 43 59 l 122 59 l 358 358 l 214 640 l 125 640 z"},"*":{"x_min":0,"x_max":335,"ha":335,"o":"m 229 575 q 247 564 265 553 q 283 542 300 531 q 290 517 280 503 q 270 489 260 475 q 243 486 225 498 q 207 510 190 521 q 187 499 184 478 q 180 456 176 434 l 116 434 l 128 521 q 108 510 88 500 q 67 489 46 478 q 36 504 23 533 q 43 544 64 554 q 84 565 105 576 q 88 587 70 599 q 53 611 36 622 q 45 635 54 648 q 63 660 72 674 q 90 663 108 651 q 126 639 144 628 l 157 720 l 221 720 q 217 697 214 674 q 210 651 206 628 q 228 639 249 650 q 270 662 292 673 q 297 659 303 646 q 309 634 314 621 q 293 610 272 598 q 251 586 229 575 z"},"Y":{"x_min":0,"x_max":768,"ha":768,"o":"m 284 59 l 354 59 l 383 268 q 340 361 298 454 q 256 546 214 640 l 125 640 l 133 700 l 355 700 l 346 640 l 290 640 q 323 568 356 496 q 389 425 421 353 l 428 324 l 429 324 l 445 353 l 656 640 l 601 640 l 609 700 l 831 700 l 822 640 l 732 640 q 663 546 596 454 q 528 361 459 267 l 430 59 l 505 59 l 497 0 l 276 0 z"},"c":{"x_min":0,"x_max":394,"ha":394,"o":"m 364 35 q 335 15 302 4 q 269 -8 233 -8 q 192 -8 158 8 q 124 23 100 50 q 77 76 66 112 q 56 147 62 188 q 68 228 88 264 q 109 300 140 326 q 170 353 208 368 q 247 384 288 384 q 324 384 354 372 q 385 361 408 341 l 392 233 l 336 233 l 346 304 q 317 323 279 323 q 250 323 224 312 q 197 302 176 284 q 156 266 142 241 q 128 216 124 188 q 120 159 127 134 q 134 110 150 92 q 165 74 188 64 q 212 53 241 53 q 267 53 290 60 q 312 68 331 82 z"},"!":{"x_min":0,"x_max":201,"ha":201,"o":"m 48 11 q 31 11 20 23 q 10 35 11 54 q 14 73 29 84 q 44 96 60 96 q 76 96 86 84 q 97 73 95 54 q 93 35 78 23 q 63 11 48 11 z m 120 750 l 182 750 l 100 166 l 38 166 z"},"/":{"x_min":0,"x_max":363,"ha":363,"o":"m -36 -19 q 61 171 156 358 q 251 546 348 736 l 411 736 q 314 546 218 358 q 123 171 26 -19 z"},"[":{"x_min":0,"x_max":338,"ha":338,"o":"m 20 -149 l 145 746 l 328 746 l 320 685 l 200 685 l 91 -88 l 212 -88 l 203 -149 z"},"6":{"x_min":0,"x_max":520,"ha":520,"o":"m 97 204 q 92 173 100 146 q 108 118 125 98 q 142 77 168 65 q 193 53 224 53 q 255 53 284 65 q 314 77 338 98 q 362 118 378 146 q 393 173 398 204 q 402 235 394 262 q 386 290 368 310 q 350 330 324 342 q 298 354 267 354 q 236 354 207 342 q 178 330 155 310 q 132 290 116 262 q 101 235 97 204 z m 32 196 q 42 268 82 330 q 121 393 176 447 q 232 501 298 548 q 363 595 425 636 q 433 624 441 612 q 449 599 457 587 q 363 530 303 480 q 243 429 209 390 q 223 401 240 408 q 256 415 275 415 q 319 415 356 398 q 393 382 418 354 q 444 325 456 286 q 467 248 461 204 q 455 160 432 122 q 409 83 376 54 q 343 26 302 9 q 260 -8 216 -8 q 173 -8 137 8 q 101 24 76 52 q 51 79 39 116 q 27 154 32 196 z"},"r":{"x_min":0,"x_max":357,"ha":357,"o":"m 43 59 l 120 59 l 156 315 l 87 315 l 95 375 l 217 375 l 215 353 q 213 332 212 316 q 212 299 210 278 q 225 303 246 322 q 266 342 288 356 q 311 369 334 376 q 356 383 375 383 l 362 322 q 299 321 254 285 q 209 249 201 193 l 182 59 l 251 59 l 243 0 l 35 0 z"},"2":{"x_min":0,"x_max":512,"ha":512,"o":"m 166 61 l 384 61 l 398 160 l 458 160 l 435 0 l 6 0 q 77 62 144 121 q 212 180 265 236 q 318 291 353 343 q 388 395 395 442 q 401 485 392 514 q 383 544 366 562 q 348 581 326 589 q 303 597 282 597 q 241 597 212 582 q 184 568 166 547 q 148 526 138 502 q 129 478 126 459 q 117 393 151 352 l 107 314 q 94 325 84 342 q 75 359 70 378 q 64 398 62 419 q 60 440 63 459 q 69 499 87 535 q 105 571 134 598 q 163 626 203 642 q 243 658 291 658 q 335 658 369 642 q 403 626 425 598 q 447 570 456 533 q 465 496 459 454 q 452 402 424 352 q 396 302 356 253 q 315 204 266 156 q 216 109 166 61 z"},"{":{"x_min":0,"x_max":306,"ha":306,"o":"m 88 265 l 98 329 q 122 330 140 344 q 157 357 168 377 q 180 397 186 420 q 193 444 196 464 l 219 628 q 225 674 238 698 q 250 723 266 734 q 282 744 302 745 q 322 746 343 746 l 399 746 l 390 685 l 342 685 q 327 685 316 680 q 305 676 298 664 q 290 652 284 632 q 279 611 275 579 l 256 444 q 251 408 242 384 q 232 359 220 342 q 208 325 195 315 q 182 305 170 298 q 180 292 190 282 q 201 271 208 254 q 215 237 218 212 q 220 187 215 153 l 196 18 q 188 -45 196 -66 q 203 -88 234 -88 l 282 -88 l 273 -149 l 217 -149 q 195 -149 176 -148 q 156 -147 143 -136 q 130 -124 125 -98 q 120 -71 127 -20 l 148 130 q 151 150 151 174 q 151 197 145 217 q 139 237 126 250 q 112 264 88 265 z"},"9":{"x_min":0,"x_max":525,"ha":525,"o":"m 413 423 q 417 454 410 482 q 402 509 384 530 q 367 550 342 562 q 316 574 285 574 q 254 574 224 562 q 195 550 172 530 q 148 509 132 482 q 116 454 112 423 q 107 392 116 364 q 124 337 142 317 q 160 297 186 285 q 212 273 243 273 q 274 273 303 285 q 332 297 355 317 q 378 337 394 364 q 409 392 413 423 z m 477 423 q 467 353 427 292 q 387 230 331 176 q 275 123 210 76 q 145 30 85 -9 q 77 3 68 16 q 60 28 52 40 q 146 97 206 147 q 266 197 301 237 q 273 212 234 212 q 190 212 154 228 q 117 245 92 274 q 66 302 54 340 q 43 379 49 423 q 55 466 78 505 q 101 544 134 572 q 167 601 208 618 q 250 635 294 635 q 338 635 374 618 q 411 601 436 572 q 461 544 472 505 q 483 466 477 423 z"}," ":{"x_min":0,"x_max":300,"ha":300,"o":""},"I":{"x_min":0,"x_max":292,"ha":292,"o":"m 43 59 l 121 59 l 203 640 l 125 640 l 133 700 l 355 700 l 346 640 l 265 640 l 184 59 l 265 59 l 257 0 l 35 0 z"},"H":{"x_min":0,"x_max":755,"ha":755,"o":"m 597 700 l 818 700 l 810 640 l 731 640 l 650 59 l 728 59 l 720 0 l 499 0 l 507 59 l 587 59 l 624 323 l 220 323 l 184 59 l 265 59 l 257 0 l 35 0 l 43 59 l 121 59 l 203 640 l 125 640 l 133 700 l 355 700 l 346 640 l 265 640 l 229 382 l 633 382 l 669 640 l 588 640 z"},"4":{"x_min":0,"x_max":522,"ha":522,"o":"m 226 59 l 301 59 l 319 183 l 16 183 l 449 658 l 390 244 l 487 244 l 479 183 l 382 183 l 364 59 l 447 59 l 439 0 l 217 0 z m 360 474 l 151 244 l 327 244 z"},"~":{"x_min":0,"x_max":489,"ha":489,"o":"m 273 486 q 260 503 250 508 q 239 513 225 513 q 218 513 208 511 q 199 509 190 504 q 180 498 172 488 q 165 479 161 464 q 152 465 143 466 q 134 466 126 467 q 130 486 140 502 q 151 517 165 528 q 179 538 195 544 q 211 549 226 549 q 248 549 264 540 q 281 530 295 514 q 308 497 319 492 q 330 487 344 487 q 351 487 360 489 q 370 491 380 496 q 389 502 396 512 q 404 521 408 536 q 416 535 425 534 q 434 534 443 533 q 439 513 428 498 q 418 483 404 472 q 390 462 374 457 q 359 452 344 452 q 321 452 304 462 q 287 471 273 486 z"},"D":{"x_min":0,"x_max":632,"ha":632,"o":"m 43 60 l 98 60 l 179 640 l 125 640 l 133 700 l 343 700 q 415 700 476 676 q 536 651 578 605 q 619 559 638 494 q 657 430 646 349 q 637 290 608 228 q 579 166 526 116 q 473 65 395 32 q 317 0 211 0 l 35 0 z m 242 640 l 160 60 l 238 60 q 309 60 369 83 q 429 106 474 145 q 519 184 547 237 q 575 290 584 350 q 593 416 578 470 q 562 524 528 562 q 493 599 442 620 q 390 640 329 640 z"},"^":{"x_min":0,"x_max":470,"ha":470,"o":"m 244 660 q 268 615 292 570 q 315 524 339 479 l 293 479 q 278 503 263 527 q 248 551 232 576 q 211 551 189 527 q 167 503 145 479 l 99 479 q 135 524 172 570 q 208 615 244 660 z"},"0":{"x_min":0,"x_max":616,"ha":616,"o":"m 37 327 q 47 395 74 456 q 102 516 143 561 q 184 606 238 632 q 291 658 353 658 q 415 658 460 631 q 506 604 534 558 q 563 512 572 452 q 582 391 572 323 q 561 249 530 188 q 499 127 455 84 q 411 40 359 16 q 307 -8 255 -8 q 203 -8 158 17 q 114 42 83 86 q 52 130 39 192 q 26 253 37 327 z m 100 327 q 91 268 100 218 q 110 168 133 132 q 156 95 190 74 q 223 53 264 53 q 305 53 345 73 q 385 93 419 129 q 453 165 477 215 q 501 265 509 324 q 516 371 510 420 q 505 468 486 508 q 466 547 432 572 q 397 597 345 597 q 293 597 250 573 q 208 549 177 510 q 146 471 126 422 q 107 374 100 327 z"},"F":{"x_min":0,"x_max":557,"ha":557,"o":"m 43 59 l 107 59 l 188 640 l 125 640 l 133 700 l 620 700 l 598 546 l 538 546 l 552 640 l 251 640 l 215 382 l 536 382 l 527 323 l 206 323 l 169 59 l 265 59 l 257 0 l 35 0 z"},"`":{"x_min":0,"x_max":200,"ha":200,"o":"m 39 612 q 54 579 68 546 q 82 512 97 479 l 51 479 q 31 512 14 546 q -4 579 -23 612 z"},"k":{"x_min":0,"x_max":515,"ha":515,"o":"m 295 59 l 325 59 q 287 119 253 179 l 190 126 l 180 59 l 251 59 l 243 0 l 35 0 l 43 59 l 118 59 l 206 690 l 138 690 l 147 750 l 277 750 l 200 200 l 339 315 l 290 315 l 298 375 l 491 375 l 483 315 l 416 315 q 386 290 360 268 q 333 245 304 220 q 327 180 350 140 q 374 100 398 59 l 488 59 l 480 0 l 287 0 z"},"u":{"x_min":0,"x_max":554,"ha":554,"o":"m 88 375 l 220 375 l 186 128 q 184 98 200 76 q 216 55 256 53 q 284 53 311 62 q 338 72 360 90 q 383 107 398 130 q 413 154 417 182 l 435 315 l 365 315 l 374 375 l 506 375 l 461 53 l 528 53 l 520 0 l 394 0 l 400 52 l 408 97 q 381 49 333 20 q 285 -8 230 -8 q 173 -8 144 23 q 115 54 120 104 l 150 315 l 80 315 z"},"]":{"x_min":0,"x_max":342,"ha":342,"o":"m 313 746 l 188 -149 l 5 -149 l 13 -88 l 133 -88 l 242 685 l 121 685 l 130 746 z"},"U":{"x_min":0,"x_max":712,"ha":712,"o":"m 134 700 l 356 700 l 347 640 l 265 640 l 207 229 q 201 186 210 153 q 219 120 240 98 q 261 75 292 63 q 324 51 364 51 q 403 51 438 63 q 473 75 500 98 q 528 120 546 153 q 565 186 571 229 l 629 640 l 547 640 l 555 700 l 776 700 l 768 640 l 691 640 l 632 226 q 624 169 600 125 q 575 81 538 52 q 501 22 454 7 q 408 -8 356 -8 q 303 -8 260 7 q 218 22 190 52 q 161 81 148 125 q 136 169 144 226 l 203 640 l 126 640 z"},"o":{"x_min":0,"x_max":468,"ha":468,"o":"m 62 188 q 68 228 88 264 q 109 300 140 326 q 170 353 208 368 q 247 384 288 384 q 330 384 364 368 q 398 353 422 326 q 445 300 456 264 q 466 228 460 188 q 454 147 434 112 q 414 76 383 50 q 352 23 314 8 q 275 -8 233 -8 q 192 -8 158 8 q 124 23 100 50 q 77 76 66 112 q 56 147 62 188 z m 125 187 q 121 159 128 134 q 135 110 150 92 q 166 74 189 64 q 212 53 240 53 q 268 53 294 64 q 320 74 341 92 q 362 110 376 134 q 391 159 395 187 q 399 215 392 240 q 384 265 368 284 q 353 302 330 312 q 306 323 278 323 q 250 323 224 312 q 198 302 177 284 q 156 265 142 240 q 129 215 125 187 z"},"N":{"x_min":0,"x_max":850,"ha":850,"o":"m 47 59 l 131 59 l 213 640 l 129 640 l 137 700 l 249 700 l 674 132 l 689 106 l 691 138 l 761 640 l 688 640 l 696 700 l 917 700 l 909 640 l 824 640 l 730 -32 l 280 559 l 265 584 l 263 553 l 194 59 l 269 59 l 261 0 l 39 0 z"},"+":{"x_min":0,"x_max":543,"ha":543,"o":"m 208 51 l 230 200 l 81 200 l 90 261 l 238 261 l 259 411 l 322 411 l 301 261 l 450 261 l 441 200 l 293 200 l 271 51 z"},"G":{"x_min":0,"x_max":609,"ha":609,"o":"m 565 298 l 529 40 q 486 17 439 4 q 392 -10 341 -10 q 267 -10 206 18 q 145 46 103 94 q 61 143 42 208 q 23 273 33 347 q 43 421 80 486 q 118 552 174 600 q 229 649 298 678 q 367 706 441 706 q 492 706 536 693 q 579 680 617 656 l 575 605 q 514 646 433 646 q 372 646 315 622 q 258 599 212 558 q 166 517 135 462 q 104 408 95 347 q 87 285 102 231 q 118 177 152 136 q 187 96 237 72 q 287 49 347 49 q 412 49 472 76 l 495 238 l 371 238 l 379 298 z"},"q":{"x_min":0,"x_max":545,"ha":545,"o":"m 298 -191 l 378 -191 l 409 32 q 411 39 414 46 q 417 53 420 61 q 413 50 399 38 q 385 26 365 16 q 345 5 320 -2 q 295 -9 267 -9 q 225 -9 191 6 q 157 22 134 49 q 111 76 100 112 q 90 147 96 188 q 102 228 122 264 q 142 299 173 326 q 204 352 242 368 q 281 383 323 383 q 350 383 373 375 q 396 367 414 356 q 431 344 442 330 q 452 317 455 307 q 457 324 462 341 q 466 358 468 375 l 597 375 l 589 315 l 511 315 l 440 -191 l 506 -191 l 498 -250 l 290 -250 z m 159 188 q 155 159 162 134 q 168 110 184 92 q 200 73 224 62 q 247 52 276 52 q 305 52 332 62 q 358 73 379 92 q 400 110 414 134 q 427 159 431 188 q 435 216 428 240 q 422 265 406 283 q 390 301 366 312 q 343 322 314 322 q 284 322 258 312 q 231 301 210 283 q 190 265 176 240 q 163 216 159 188 z"},"d":{"x_min":0,"x_max":542,"ha":542,"o":"m 382 30 q 384 38 384 46 q 385 55 387 63 q 381 53 368 41 q 354 29 334 18 q 315 7 290 0 q 264 -8 234 -8 q 192 -8 158 8 q 124 23 100 50 q 77 77 66 112 q 56 148 62 188 q 68 228 88 264 q 108 299 139 326 q 170 353 208 368 q 247 384 289 384 q 316 384 339 376 q 362 369 380 358 q 397 346 408 333 q 418 320 421 310 q 422 324 422 338 q 422 352 423 367 l 468 690 l 400 690 l 408 750 l 538 750 l 441 59 l 516 59 l 508 0 l 378 0 z m 125 188 q 121 159 128 134 q 134 110 150 92 q 166 74 190 64 q 213 53 242 53 q 271 53 298 64 q 324 74 345 92 q 366 110 380 134 q 393 159 397 188 q 401 216 394 241 q 388 266 372 284 q 356 302 332 312 q 309 323 280 323 q 250 323 224 312 q 197 302 176 284 q 156 266 142 241 q 129 216 125 188 z"},"1":{"x_min":0,"x_max":278,"ha":278,"o":"m -1 59 l 78 59 l 152 589 l 71 589 l 79 650 l 223 650 l 141 59 l 220 59 l 212 0 l -9 0 z"},"5":{"x_min":0,"x_max":543,"ha":543,"o":"m 476 650 l 460 535 l 400 535 l 407 589 l 243 589 l 218 407 q 242 415 266 415 q 310 415 346 398 q 383 382 408 354 q 434 325 446 287 q 458 249 452 205 q 446 161 423 122 q 400 84 366 55 q 333 26 292 9 q 250 -8 207 -8 q 164 -8 128 8 q 93 23 68 51 l 120 94 q 156 53 215 53 q 246 53 276 65 q 305 77 329 98 q 353 119 368 146 q 384 174 389 205 q 393 236 385 263 q 377 290 359 310 q 341 330 314 342 q 288 354 257 354 q 222 354 192 342 q 161 331 140 307 l 189 650 z"}}}
